<svg width="14" height="14" viewBox="0 0 14 14" fill="none" xmlns="http://www.w3.org/2000/svg">
<path d="M8.94051 13.4098L8.78037 13.384C7.5946 13.1931 6.47614 12.7062 5.52843 11.9683L3 9.99992C1.74097 9.05565 1 7.57371 1 5.99992V5.5348V5.16206C1 4.41269 1.17101 3.67321 1.5 2.99992C1.82013 2.35948 2.38166 1.87252 3.06096 1.64625L3.2451 1.58491C3.41458 1.52845 3.58945 1.48969 3.76691 1.46925L4.07641 1.43358C4.78397 1.35205 5.4827 1.64619 5.91892 2.20922L6.97297 3.41853C7.2907 3.76903 7.36063 4.27865 7.14906 4.70179L7.09586 4.8082C7.03237 4.93518 6.94882 5.0511 6.84843 5.15149L6.3444 5.65552C6.12565 5.87427 5.82275 5.98737 5.51416 5.96552L5.43601 5.95999C5.23469 5.94573 5.04494 5.8606 4.90043 5.71972L4.84959 5.67014C4.4927 5.32218 3.9073 5.38482 3.63211 5.80041C3.54595 5.93053 3.5 6.08314 3.5 6.2392V6.31459C3.5 6.43719 3.52157 6.55883 3.56372 6.67395L3.62595 6.84388C3.74717 7.17495 3.95111 7.46948 4.21836 7.69944L7.5687 10.5823C7.83219 10.809 8.22186 10.809 8.48536 10.5823C8.6405 10.4488 8.72973 10.2543 8.72973 10.0496V9.83752C8.72973 9.42013 8.95301 9.03463 9.31507 8.82694L9.45167 8.74858C9.66928 8.62374 9.91579 8.55806 10.1667 8.55806H10.2941C10.8614 8.55806 11.3995 8.80957 11.7633 9.2448L13.0198 10.7477C13.3936 11.1949 13.4323 11.8335 13.1151 12.3225C13.0388 12.44 12.9445 12.5448 12.8355 12.6328L12.6387 12.7918C12.1536 13.1838 11.5557 13.41 10.9327 13.4372L10.0662 13.4752C9.6897 13.4916 9.31254 13.4697 8.94051 13.4098Z" stroke="white"/>
</svg>
