<svg width="12" height="15" viewBox="0 0 12 15" fill="none" xmlns="http://www.w3.org/2000/svg">
<path d="M11.5 5.19231C11.5 5.77447 11.1816 6.64958 10.6214 7.69911C10.0735 8.7256 9.33755 9.84196 8.59356 10.8803C7.85093 11.9168 7.10729 12.8658 6.54875 13.5564C6.33493 13.8207 6.14851 14.0468 6 14.2251C5.85149 14.0468 5.66507 13.8207 5.45125 13.5564C4.89271 12.8658 4.14907 11.9168 3.40644 10.8803C2.66245 9.84196 1.92648 8.7256 1.3786 7.69911C0.818429 6.64958 0.5 5.77447 0.5 5.19231C0.5 2.66623 2.89213 0.5 6 0.5C9.10787 0.5 11.5 2.66623 11.5 5.19231Z" fill="white" fill-opacity="0.01" stroke="white"/>
<circle cx="6" cy="6" r="1.5" stroke="white"/>
</svg>
